<?xml version="1.0" standalone="no"?>
<!DOCTYPE svg PUBLIC "-//W3C//DTD SVG 20010904//EN"
 "http://www.w3.org/TR/2001/REC-SVG-20010904/DTD/svg10.dtd">
<svg version="1.0" xmlns="http://www.w3.org/2000/svg"
 width="512.000000pt" height="512.000000pt" viewBox="0 0 512.000000 512.000000"
 preserveAspectRatio="xMidYMid meet">

<g transform="translate(0.000000,512.000000) scale(0.100000,-0.100000)"
fill="#000000" stroke="none">
<path d="M2775 4473 c-31 -12 -297 -191 -717 -486 l-668 -467 -323 0 c-254 0
-335 -3 -380 -15 -173 -45 -307 -178 -352 -350 -22 -88 -22 -1102 0 -1190 45
-172 179 -305 352 -350 45 -12 126 -15 380 -15 l323 0 668 -467 c483 -339 682
-473 722 -486 150 -52 319 23 388 171 l27 57 0 1685 0 1685 -27 57 c-31 67
-91 128 -156 158 -65 31 -170 37 -237 13z m103 -2717 l-3 -805 -637 446 -638
446 0 717 0 717 638 446 637 446 3 -804 c1 -443 1 -1167 0 -1609z m-1598 804
l0 -641 -269 3 c-254 3 -271 4 -297 24 -15 11 -37 33 -48 48 -20 27 -21 40
-24 539 -2 282 0 526 3 544 7 40 49 91 90 109 22 10 96 13 288 14 l257 0 0
-640z"/>
<path d="M3930 4138 c-61 -31 -95 -97 -85 -164 6 -41 18 -57 115 -159 209
-218 332 -416 423 -681 125 -360 127 -766 6 -1129 -92 -275 -215 -477 -426
-696 -72 -75 -105 -117 -113 -145 -24 -82 28 -172 113 -195 67 -18 109 1 201
90 353 341 575 802 626 1300 63 627 -175 1270 -632 1707 -106 101 -145 114
-228 72z"/>
<path d="M3614 3486 c-38 -17 -71 -57 -86 -107 -17 -57 2 -107 68 -181 323
-362 323 -914 0 -1276 -85 -95 -96 -169 -34 -247 40 -51 129 -71 187 -41 68
36 202 208 276 356 93 185 129 345 129 570 0 121 -4 187 -18 248 -50 233 -157
446 -301 601 -83 89 -144 110 -221 77z"/>
</g>
</svg>
