<?xml version="1.0" standalone="no"?>
<!DOCTYPE svg PUBLIC "-//W3C//DTD SVG 20010904//EN"
 "http://www.w3.org/TR/2001/REC-SVG-20010904/DTD/svg10.dtd">
<svg version="1.0" xmlns="http://www.w3.org/2000/svg"
 width="512.000000pt" height="512.000000pt" viewBox="0 0 512.000000 512.000000"
 preserveAspectRatio="xMidYMid meet">

<g transform="translate(0.000000,512.000000) scale(0.100000,-0.100000)"
fill="#000000" stroke="none">
<path d="M2775 4473 c-31 -12 -297 -191 -717 -486 l-668 -467 -323 0 c-254 0
-335 -3 -380 -15 -173 -45 -307 -178 -352 -350 -22 -88 -22 -1102 0 -1190 45
-172 179 -305 352 -350 45 -12 126 -15 380 -15 l323 0 668 -467 c483 -339 682
-473 722 -486 150 -52 319 23 388 171 l27 57 0 1685 0 1685 -27 57 c-31 67
-91 128 -156 158 -65 31 -170 37 -237 13z m103 -2717 l-3 -804 -637 446 -638
446 0 716 0 716 638 446 637 446 3 -804 c1 -442 1 -1166 0 -1608z m-1598 804
l0 -641 -269 3 c-254 3 -271 4 -297 24 -15 11 -37 33 -48 48 -20 27 -21 40
-24 539 -2 282 0 526 3 544 7 40 49 91 90 109 22 10 96 13 288 14 l257 0 0
-640z"/>
<path d="M3465 3268 c-32 -17 -76 -61 -91 -90 -17 -32 -18 -91 -3 -121 6 -12
117 -129 247 -259 l237 -238 -237 -237 c-130 -131 -241 -248 -247 -260 -14
-28 -14 -88 0 -116 17 -32 60 -77 91 -93 32 -17 91 -18 121 -3 12 6 129 117
260 247 l237 237 238 -237 c130 -130 247 -241 259 -247 113 -57 269 99 212
212 -6 12 -117 129 -247 260 l-237 237 237 238 c130 130 241 247 247 259 14
28 14 88 0 116 -17 32 -60 77 -91 93 -32 17 -91 18 -121 3 -12 -6 -129 -117
-259 -247 l-238 -237 -237 237 c-131 130 -248 241 -260 247 -28 14 -92 14
-118 -1z"/>
</g>
</svg>
